<svg width="59" height="44" viewBox="0 0 59 44" fill="none" xmlns="http://www.w3.org/2000/svg">
<path d="M2.90727 22.1452V24.2203C2.90881 25.5044 3.41962 26.7356 4.32767 27.6436C5.23571 28.5517 6.46685 29.0625 7.75102 29.064V35.9664C6.83605 36.2006 6.03813 36.761 5.50724 37.5422C4.97635 38.3233 4.74903 39.2715 4.86801 40.2084C4.98699 41.1454 5.44407 42.0066 6.15336 42.6303C6.86264 43.254 7.77528 43.5971 8.71977 43.5953H51.3448C52.2892 43.5971 53.2019 43.254 53.9112 42.6303C54.6205 42.0066 55.0775 41.1454 55.1965 40.2084C55.3155 39.2715 55.0882 38.3233 54.5573 37.5422C54.0264 36.761 53.2285 36.2006 52.3135 35.9664V32.9138C53.147 33.555 54.1682 33.9042 55.2198 33.9078H57.1573C57.3228 33.9087 57.4859 33.8671 57.6308 33.7871C57.7757 33.7071 57.8977 33.5913 57.9852 33.4507C58.0726 33.3101 58.1226 33.1495 58.1303 32.9841C58.138 32.8187 58.1031 32.6541 58.0291 32.506L56.1885 28.8354V23.2515C56.187 21.9674 55.6762 20.7362 54.7681 19.8282C53.8601 18.9201 52.6289 18.4093 51.3448 18.4078H48.4385V17.439C48.4385 13.5166 45.9314 10.9823 41.7541 10.6578L22.2823 8.72028H12.5948C11.3106 8.72181 10.0795 9.23263 9.17142 10.1407C8.26337 11.0487 7.75256 12.2799 7.75102 13.564V17.439H7.61345C7.44405 16.778 7.10274 16.1735 6.62416 15.687C6.14558 15.2005 5.54679 14.8493 4.88859 14.6691C4.23039 14.4888 3.53621 14.486 2.87655 14.6608C2.2169 14.8356 1.61524 15.1819 1.13269 15.6644C0.650139 16.147 0.303872 16.7487 0.129049 17.4083C-0.0457734 18.068 -0.0429247 18.7621 0.137306 19.4203C0.317536 20.0786 0.66873 20.6773 1.15523 21.1559C1.64172 21.6345 2.2462 21.9758 2.90727 22.1452ZM48.4385 20.3453H51.3448C52.1156 20.3453 52.8548 20.6515 53.3998 21.1965C53.9448 21.7415 54.251 22.4807 54.251 23.2515V29.064C54.2494 29.2139 54.2825 29.3622 54.3479 29.4971L55.5898 31.9703H55.2198C54.449 31.9703 53.7098 31.6641 53.1647 31.1191C52.6197 30.574 52.3135 29.8348 52.3135 29.064V23.2515C52.3135 22.9946 52.2115 22.7482 52.0298 22.5665C51.8481 22.3848 51.6017 22.2828 51.3448 22.2828H48.4385V20.3453ZM47.4698 28.0953C47.7267 28.0953 47.9731 27.9932 48.1548 27.8115C48.3365 27.6299 48.4385 27.3835 48.4385 27.1265V24.2203H50.376V35.8453H36.8135V37.7828H51.3448C51.8586 37.7828 52.3514 37.9869 52.7148 38.3503C53.0781 38.7136 53.2823 39.2064 53.2823 39.7203C53.2823 40.2341 53.0781 40.7269 52.7148 41.0903C52.3514 41.4536 51.8586 41.6578 51.3448 41.6578H8.71977C8.20591 41.6578 7.7131 41.4536 7.34975 41.0903C6.9864 40.7269 6.78227 40.2341 6.78227 39.7203C6.78227 39.2064 6.9864 38.7136 7.34975 38.3503C7.7131 37.9869 8.20591 37.7828 8.71977 37.7828H25.1885V35.8453H9.68852V29.064H12.5948C12.7179 29.0641 12.8398 29.0408 12.9542 28.9952L20.801 25.8555C20.9675 25.9218 21.1384 25.9762 21.3125 26.0183V29.064C21.3125 30.0917 21.7208 31.0774 22.4475 31.8041C23.1742 32.5308 24.1598 32.939 25.1875 32.939C26.2153 32.939 27.2009 32.5308 27.9276 31.8041C28.6543 31.0774 29.0625 30.0917 29.0625 29.064V24.2203H35.0426C34.8784 24.6862 34.835 25.1862 34.9167 25.6734C35.0492 26.3617 35.4195 26.9814 35.9629 27.4242C36.5062 27.8669 37.188 28.1045 37.8888 28.0953H47.4698ZM38.751 12.3047V13.564C38.751 13.821 38.649 14.0674 38.4673 14.249C38.2856 14.4307 38.0392 14.5328 37.7823 14.5328C37.5253 14.5328 37.2789 14.4307 37.0973 14.249C36.9156 14.0674 36.8135 13.821 36.8135 13.564C36.8112 13.0376 36.6644 12.5219 36.3892 12.0731L38.751 12.3047ZM29.0635 11.3359L31.7692 11.6062C31.2759 12.1389 31.0016 12.838 31.001 13.564V17.439C31.001 17.696 30.899 17.9424 30.7173 18.124C30.5356 18.3057 30.2892 18.4078 30.0323 18.4078C29.7753 18.4078 29.5289 18.3057 29.3473 18.124C29.1656 17.9424 29.0635 17.696 29.0635 17.439V11.3359ZM26.1892 21.2336L25.3348 10.9649L27.126 11.147V17.439C27.126 18.2098 27.4322 18.949 27.9772 19.4941C28.5223 20.0391 29.2615 20.3453 30.0323 20.3453C30.8031 20.3453 31.5423 20.0391 32.0873 19.4941C32.6323 18.949 32.9385 18.2098 32.9385 17.439V13.564C32.9385 13.3071 33.0406 13.0607 33.2223 12.879C33.4039 12.6973 33.6503 12.5953 33.9073 12.5953C34.1642 12.5953 34.4106 12.6973 34.5923 12.879C34.774 13.0607 34.876 13.3071 34.876 13.564C34.876 14.3348 35.1822 15.074 35.7272 15.6191C36.2723 16.1641 37.0115 16.4703 37.7823 16.4703C38.5531 16.4703 39.2923 16.1641 39.8373 15.6191C40.3823 15.074 40.6885 14.3348 40.6885 13.564V12.5032L41.5836 12.5924C43.4243 12.7338 46.501 13.5495 46.501 17.4361V26.1549H37.8888C37.6473 26.164 37.41 26.0895 37.2171 25.9439C37.0241 25.7982 36.8874 25.5905 36.83 25.3557C36.8057 25.2166 36.8121 25.0739 36.8487 24.9376C36.8854 24.8013 36.9514 24.6746 37.0421 24.5665C37.1328 24.4583 37.246 24.3713 37.3739 24.3115C37.5017 24.2517 37.6411 24.2206 37.7823 24.2203H43.5948V22.2828H40.1499C39.5948 21.626 38.8818 20.4945 39.1734 19.7979C39.309 19.4734 40.0995 18.4078 44.5635 18.4078V16.4703C40.4531 16.4703 38.1039 17.317 37.3822 19.0578C37.2018 19.5915 37.1454 20.1592 37.217 20.718C37.2887 21.2768 37.4866 21.8119 37.7958 22.2828H28.0948C27.8378 22.2828 27.5914 22.3848 27.4098 22.5665C27.2281 22.7482 27.126 22.9946 27.126 23.2515V29.064C27.126 29.5779 26.9219 30.0707 26.5585 30.434C26.1952 30.7974 25.7024 31.0015 25.1885 31.0015C24.6747 31.0015 24.1818 30.7974 23.8185 30.434C23.4551 30.0707 23.251 29.5779 23.251 29.064V26.0406C23.992 25.8728 24.662 25.4775 25.1672 24.91C25.5867 24.4036 25.8945 23.8144 26.0706 23.1809C26.2468 22.5474 26.2872 21.8838 26.1892 21.2336ZM20.3767 21.3944L21.2719 10.6578H22.2329L23.374 10.7721L24.2634 21.4342C24.3303 21.8179 24.316 22.2114 24.2216 22.5893C24.1272 22.9673 23.9546 23.3212 23.715 23.6284C23.5404 23.8236 23.3248 23.9779 23.0837 24.0802C22.8426 24.1825 22.5818 24.2304 22.32 24.2203C22.0584 24.2304 21.7978 24.1826 21.5568 24.0803C21.3158 23.978 21.1004 23.8236 20.926 23.6284C20.6829 23.3154 20.5083 22.9547 20.4137 22.5698C20.319 22.185 20.3065 21.7845 20.3767 21.3944ZM7.61345 19.3765H8.71977C8.9767 19.3765 9.2231 19.2745 9.40478 19.0928C9.58645 18.9111 9.68852 18.6647 9.68852 18.4078V13.564C9.68852 12.7932 9.99471 12.054 10.5397 11.509C11.0848 10.964 11.824 10.6578 12.5948 10.6578H19.3285L18.4509 21.1939C18.2933 22.3214 18.5378 23.4683 19.1416 24.4334L12.4088 27.1265H9.77667C9.99464 25.7112 10.7735 23.2515 13.5635 23.2515V21.314C9.54224 21.314 8.10946 24.7047 7.81302 27.1265H7.75102C6.98023 27.1265 6.24102 26.8203 5.69599 26.2753C5.15096 25.7303 4.84477 24.9911 4.84477 24.2203V22.1452C5.51054 21.9711 6.11794 21.6229 6.60454 21.1363C7.09113 20.6497 7.43937 20.0423 7.61345 19.3765ZM3.87602 16.4703C4.25922 16.4703 4.63381 16.5839 4.95244 16.7968C5.27106 17.0097 5.51939 17.3123 5.66603 17.6663C5.81268 18.0204 5.85105 18.4099 5.77629 18.7858C5.70153 19.1616 5.517 19.5068 5.24604 19.7778C4.97507 20.0488 4.62984 20.2333 4.25401 20.308C3.87817 20.3828 3.4886 20.3444 3.13457 20.1978C2.78054 20.0511 2.47794 19.8028 2.26505 19.4842C2.05215 19.1656 1.93852 18.791 1.93852 18.4078C1.93852 17.8939 2.14265 17.4011 2.506 17.0378C2.86935 16.6744 3.36216 16.4703 3.87602 16.4703Z" fill="#79C0AA"/>
<path d="M16.4698 17.4389V15.5014C15.6503 15.4323 14.8584 15.1725 14.1574 14.7427C13.4563 14.3129 12.8654 13.7251 12.432 13.0263L10.82 14.1016C11.4305 15.0652 12.261 15.8701 13.2432 16.4503C14.2253 17.0305 15.3312 17.3693 16.4698 17.4389Z" fill="#006F63"/>
<path d="M14.5322 17.439H12.5947V19.3765H14.5322V17.439Z" fill="#006F63"/>
<path d="M34.876 35.8453H32.9385V37.7828H34.876V35.8453Z" fill="#006F63"/>
<path d="M34.876 0.970186C34.2265 0.989422 33.5821 0.850101 32.9985 0.56428C32.1673 0.193198 31.2671 0.0014102 30.3568 0.0014102C29.4464 0.0014102 28.5463 0.193198 27.715 0.56428C27.1246 0.831841 26.4838 0.97025 25.8356 0.97025C25.1874 0.97025 24.5466 0.831841 23.9562 0.56428C23.131 0.173971 22.2262 -0.0187362 21.3135 0.00143514V1.93894C21.9636 1.91962 22.6086 2.05894 23.1929 2.34484C24.0245 2.71591 24.9249 2.90768 25.8356 2.90768C26.7463 2.90768 27.6467 2.71591 28.4784 2.34484C29.0683 2.07734 29.7085 1.93896 30.3563 1.93896C31.004 1.93896 31.6443 2.07734 32.2342 2.34484C33.0592 2.73494 33.9636 2.92764 34.876 2.90769V0.970186Z" fill="#006F63"/>
<path d="M28.4202 3.87644C27.5076 3.85626 26.6027 4.04897 25.7775 4.43928C25.1871 4.70684 24.5463 4.84525 23.8981 4.84525C23.2499 4.84525 22.6091 4.70684 22.0187 4.43928C21.1935 4.04897 20.2887 3.85626 19.376 3.87644V5.81394C20.0261 5.79462 20.6711 5.93394 21.2554 6.21984C22.0806 6.61015 22.9854 6.80286 23.8981 6.78269C24.8108 6.80286 25.7156 6.61015 26.5409 6.21984C27.1308 5.95235 27.771 5.81396 28.4188 5.81396C29.0665 5.81396 29.7068 5.95235 30.2967 6.21984C31.1217 6.60994 32.0261 6.80264 32.9385 6.78269V4.84519C32.289 4.86442 31.6446 4.7251 31.061 4.43928C30.2364 4.04906 29.3323 3.85635 28.4202 3.87644Z" fill="#006F63"/>
</svg>
